<svg id="eJFZ9EIXCpz1" xmlns="http://www.w3.org/2000/svg" xmlns:xlink="http://www.w3.org/1999/xlink" viewBox="0 0 300 300" shape-rendering="geometricPrecision" text-rendering="geometricPrecision" project-id="1fd475f9dd204af3a521a3ffd2aba285" export-id="d130f27ca63f4a12920cfe5bf9550d8e" cached="false"><path d="" fill="none" stroke="#3f5787" stroke-width="0.6"/><path d="M63.813109,88.151773h55.856397L150,104.200653l71.941776,1.258735l49.720057,18.251666-.000001,3.146838-127.132299.314683-.314685,6.293678l127.446981-1.57342.314683,5.349627-48.461322,12.757537h-73.515195l-29.386442,19.969589h-56.800444c-22.256548-29.366715-20.603099-56.928052,0-81.817813Z" transform="matrix(1 0 0 0.539836 0.000005 58.244278)" fill="none" stroke="#3f5787" stroke-width="0.6"/><path d="M294.633758,128.745997L0,128.746002" transform="translate(2.683121 0.000005)" fill="none" stroke="#3f5787" stroke-width="0.6"/><rect width="25.804081" height="5.349627" rx="0" ry="0" transform="translate(130.925069 73.401844)" fill="#d2dbed" stroke-width="0"/><rect width="25.804081" height="5.349627" rx="0" ry="0" transform="matrix(0.451222 0 0 1 69.32005 91.480439)" fill="#d2dbed" stroke-width="0"/><rect width="25.804081" height="5.349627" rx="0" ry="0" transform="matrix(0.451222 0 0 1 69.32005 156.491213)" fill="#d2dbed" stroke-width="0"/><rect width="25.804081" height="5.349627" rx="0" ry="0" transform="matrix(0.451222 0 0 1 63.498366 173.169462)" fill="#d2dbed" stroke-width="0"/><rect width="25.804081" height="5.349627" rx="0" ry="0" transform="matrix(0.451222 0 0 1 101.732523 173.169462)" fill="#d2dbed" stroke-width="0"/><rect width="25.804081" height="5.349627" rx="0" ry="0" transform="matrix(0.451222 0 0 1 133.830252 173.169462)" fill="#d2dbed" stroke-width="0"/><rect width="25.804081" height="5.349627" rx="0" ry="0" transform="matrix(0.451222 0 0 1 164.160712 118.188357)" fill="#d2dbed" stroke-width="0"/><rect width="25.804081" height="5.349627" rx="0" ry="0" transform="matrix(0.451222 0 0 1 156.729151 149.999979)" fill="#d2dbed" stroke-width="0"/><rect width="25.804081" height="5.349627" rx="0" ry="0" transform="matrix(0.451222 0 0 1 175.804082 173.169462)" fill="#d2dbed" stroke-width="0"/><rect width="25.804081" height="5.349627" rx="0" ry="0" transform="matrix(0.451222 0 0 1 212.186467 170.494649)" fill="#d2dbed" stroke-width="0"/><rect width="25.804081" height="5.349627" rx="0" ry="0" transform="matrix(0.451222 0 0 1 225.088507 149.999979)" fill="#d2dbed" stroke-width="0"/><rect width="25.804081" height="5.349627" rx="0" ry="0" transform="matrix(0.451222 0 0 1.182352 41.938871 186.842489)" fill="#d2dbed" stroke-width="0"/><rect width="25.804081" height="5.349627" rx="0" ry="0" transform="matrix(0.524387 0 0 1 88.201198 91.480439)" fill="#d2dbed" stroke-width="0"/><rect width="25.804081" height="5.349627" rx="0" ry="0" transform="matrix(0.487806 0 0 1 110.228973 91.480438)" fill="#d2dbed" stroke-width="0"/><rect width="25.804081" height="5.349627" rx="0" ry="0" transform="translate(174.267165 86.130811)" fill="#d2dbed" stroke-width="0"/><rect width="25.804081" height="5.349627" rx="0" ry="0" transform="matrix(0.478443 0 0 1 156.72915 99.779347)" fill="#d2dbed" stroke-width="0"/><rect width="25.804081" height="5.349627" rx="0" ry="0" transform="matrix(0.478443 0 0 1 29.593089 106.517372)" fill="#d2dbed" stroke-width="0"/><rect width="25.804081" height="5.349627" rx="0" ry="0" transform="matrix(0.478443 0 0 1 29.593089 114.541812)" fill="#d2dbed" stroke-width="0"/><rect width="25.804081" height="5.349627" rx="0" ry="0" transform="matrix(0.478443 0 0 1 29.593089 122.566252)" fill="#d2dbed" stroke-width="0"/><rect width="25.804081" height="5.349627" rx="0" ry="0" transform="matrix(0.478443 0 0 1 6.467533 120.863171)" fill="#d2dbed" stroke-width="0"/><rect width="25.804081" height="5.349627" rx="0" ry="0" transform="translate(223.829835 88.805625)" fill="#d2dbed" stroke-width="0"/><rect width="25.804081" height="5.349627" rx="0" ry="0" transform="matrix(0.475614 0 0 1 243.497525 102.45416)" fill="#d2dbed" stroke-width="0"/><rect width="25.804081" height="5.349627" rx="0" ry="0" transform="matrix(0.36588 0 0 1 262.53532 102.45416)" fill="#d2dbed" stroke-width="0"/><rect width="25.804081" height="5.349627" rx="0" ry="0" transform="matrix(0.451219 0 0 1 279.528941 102.45416)" fill="#d2dbed" stroke-width="0"/></svg>
