<svg id="exwrCFjAhkG1" xmlns="http://www.w3.org/2000/svg" xmlns:xlink="http://www.w3.org/1999/xlink" viewBox="0 0 1920 1080" shape-rendering="geometricPrecision" text-rendering="geometricPrecision" project-id="218648706ef94d4987ae09e34efdfb11" export-id="20b315bc6a6a408eb4f016734a03835f" cached="false"><path d="M124.872599,806.431394l153.045374,1.47159v-86.823818l214.85216,4.414771l45.619294-41.204524l2.94318-211.90898q141.272653,4.414771,141.272653,5.886361t-8.829541,206.022619l20.602262,47.090884l150.102194,1.47159l35.318163-45.619294-4.414771-216.32375l104.482899-2.943181-5.886361,223.6817l26.488621,50.034065l300.204387-11.772721l8.829541,88.295408h195.721488c-185.420359-524.85061-1049.243768-849.146963-1380.351543-11.77272Z" transform="matrix(1 0 0 0.92571 139.918267 -110.690889)" fill="none" stroke="#3f5787" stroke-width="3.84"/><path d="" fill="none" stroke="#3f5787" stroke-width="3.84"/><path d="" fill="none" stroke="#3f5787" stroke-width="3.84"/><path d="" fill="none" stroke="#3f5787" stroke-width="3.84"/><rect width="192" height="108" rx="0" ry="0" transform="matrix(0.495162 0 0 0.333508 294.205113 651.645728)" fill="#d2dbed" stroke-width="0"/><rect width="192" height="108" rx="0" ry="0" transform="matrix(0.400321 0 0 0.207921 703.672198 579.216696)" fill="#d2dbed" stroke-width="0"/><rect width="192" height="108" rx="0" ry="0" transform="matrix(0.279779 0 0 0.207921 633.568402 649.140884)" fill="#d2dbed" stroke-width="0"/><rect width="192" height="108" rx="0" ry="0" transform="matrix(0.589792 0 0 0.369456 466.88252 651.645728)" fill="#d2dbed" stroke-width="0"/><rect width="192" height="108" rx="0" ry="0" transform="matrix(0.274017 0 0 0.240005 780.53383 643.73462)" fill="#d2dbed" stroke-width="0"/><rect width="192" height="108" rx="0" ry="0" transform="matrix(0.274017 0 0 0.240005 980.331225 634.448078)" fill="#d2dbed" stroke-width="0"/><rect width="192" height="108" rx="0" ry="0" transform="matrix(0.274017 0 0 0.240005 1093.267581 630.77435)" fill="#d2dbed" stroke-width="0"/><rect width="192" height="108" rx="0" ry="0" transform="matrix(0.411671 0 0 0.369456 1014.226749 559.266072)" fill="#d2dbed" stroke-width="0"/><rect width="192" height="108" rx="0" ry="0" transform="matrix(0.442178 0 0 0.392486 1278.107402 651.645728)" fill="#d2dbed" stroke-width="0"/><rect width="192" height="108" rx="0" ry="0" transform="matrix(0.442178 0 0 0.392486 1502.48101 656.69489)" fill="#d2dbed" stroke-width="0"/><rect width="192" height="108" rx="0" ry="0" transform="matrix(0.442178 0 0 0.392486 1661.881541 175.666286)" fill="#d2dbed" stroke-width="0"/><rect width="192" height="108" rx="0" ry="0" transform="matrix(0.442178 0 0 0.392486 1661.881541 292.628499)" fill="#d2dbed" stroke-width="0"/><rect width="192" height="108" rx="0" ry="0" transform="matrix(0.281459 0 0 0.189274 895.607588 787.163149)" fill="#d2dbed" stroke-width="0"/><rect width="192" height="108" rx="0" ry="0" transform="matrix(0.442178 0 0 0.392486 1661.881541 415.644125)" fill="#d2dbed" stroke-width="0"/><rect width="192" height="108" rx="0" ry="0" transform="matrix(0.442178 0 0 0.392486 1661.881541 497.611512)" fill="#d2dbed" stroke-width="0"/><rect width="192" height="108" rx="0" ry="0" transform="matrix(0.442178 0 0 0.392486 1661.881541 569.250186)" fill="#d2dbed" stroke-width="0"/><rect width="192" height="108" rx="0" ry="0" transform="matrix(0.350835 0 0 0.238637 878.83739 643.882364)" fill="#d2dbed" stroke-width="0"/><rect width="192" height="108" rx="0" ry="0" transform="matrix(0.442178 0 0 0.392486 122.71648 363.399786)" fill="#d2dbed" stroke-width="0"/><path d="M236.806144,80.006417l-6.930458,555.8243" fill="none" stroke="#3f5787" stroke-width="3.84"/><path d="" fill="none" stroke="#3f5787" stroke-width="3.84"/><path d="M264.790866,816.367564l1380.351543-1.732615" transform="translate(0 0.000001)" fill="none" stroke="#3f5787" stroke-width="3.84"/></svg>
